<svg xmlns="http://www.w3.org/2000/svg" height="559.355pt" version="1.1" viewBox="0 0 559.355 559.355" width="559.355pt">
<g id="surface1">
<path d="M 549.683594 232.917969 L 549.683594 27.949219 C 549.683594 17.660156 541.339844 9.316406 531.050781 9.316406 L 27.949219 9.316406 C 17.660156 9.316406 9.316406 17.660156 9.316406 27.949219 L 9.316406 232.917969 C 9.316406 243.207031 17.660156 251.550781 27.949219 251.550781 L 531.050781 251.550781 C 541.339844 251.550781 549.683594 243.207031 549.683594 232.917969 Z M 372.667969 149.066406 L 186.332031 149.066406 C 176.042969 149.066406 167.699219 140.722656 167.699219 130.433594 C 167.699219 120.144531 176.042969 111.800781 186.332031 111.800781 L 372.667969 111.800781 C 382.957031 111.800781 391.300781 120.144531 391.300781 130.433594 C 391.300781 140.722656 382.957031 149.066406 372.667969 149.066406 Z M 372.667969 149.066406 " style=" stroke:none;fill-rule:nonzero;fill:rgb(100%,92.156863%,60%);fill-opacity:1;" />
<path d="M 27.949219 493.785156 L 531.050781 493.785156 C 541.339844 493.785156 549.683594 485.441406 549.683594 475.148438 L 549.683594 270.183594 C 549.683594 259.894531 541.339844 251.550781 531.050781 251.550781 L 27.949219 251.550781 C 17.660156 251.550781 9.316406 259.894531 9.316406 270.183594 L 9.316406 475.148438 C 9.316406 485.441406 17.660156 493.785156 27.949219 493.785156 Z M 186.332031 354.03125 L 372.667969 354.03125 C 382.957031 354.03125 391.300781 362.375 391.300781 372.667969 C 391.300781 382.957031 382.957031 391.300781 372.667969 391.300781 L 186.332031 391.300781 C 176.042969 391.300781 167.699219 382.957031 167.699219 372.667969 C 167.699219 362.375 176.042969 354.03125 186.332031 354.03125 Z M 186.332031 354.03125 " style=" stroke:none;fill-rule:nonzero;fill:rgb(100%,92.156863%,60%);fill-opacity:1;" />
<path d="M 391.300781 130.433594 L 204.96875 130.433594 C 194.675781 130.433594 186.332031 138.777344 186.332031 149.066406 C 186.332031 159.355469 194.675781 167.699219 204.96875 167.699219 L 391.300781 167.699219 C 401.589844 167.699219 409.933594 159.355469 409.933594 149.066406 C 409.933594 138.777344 401.589844 130.433594 391.300781 130.433594 Z M 391.300781 130.433594 " style=" stroke:none;fill-rule:nonzero;fill:rgb(80%,64.313725%,0%);fill-opacity:1;" />
<path d="M 204.96875 409.933594 L 391.300781 409.933594 C 401.589844 409.933594 409.933594 401.589844 409.933594 391.300781 C 409.933594 381.011719 401.589844 372.667969 391.300781 372.667969 L 204.96875 372.667969 C 194.675781 372.667969 186.332031 381.011719 186.332031 391.300781 C 186.332031 401.589844 194.675781 409.933594 204.96875 409.933594 Z M 204.96875 409.933594 " style=" stroke:none;fill-rule:nonzero;fill:rgb(80%,64.313725%,0%);fill-opacity:1;" />
<path d="M 447.199219 549.683594 L 484.464844 549.683594 L 493.785156 493.785156 L 437.882812 493.785156 Z M 447.199219 549.683594 " style=" stroke:none;fill-rule:nonzero;fill:rgb(80%,64.313725%,0%);fill-opacity:1;" />
<path d="M 74.535156 549.683594 L 111.800781 549.683594 L 121.117188 493.785156 L 65.214844 493.785156 Z M 74.535156 549.683594 " style=" stroke:none;fill-rule:nonzero;fill:rgb(80%,64.313725%,0%);fill-opacity:1;" />
<path d="M 372.667969 111.800781 L 186.332031 111.800781 C 176.042969 111.800781 167.699219 120.144531 167.699219 130.433594 C 167.699219 140.722656 176.042969 149.066406 186.332031 149.066406 L 372.667969 149.066406 C 382.957031 149.066406 391.300781 140.722656 391.300781 130.433594 C 391.300781 120.144531 382.957031 111.800781 372.667969 111.800781 Z M 372.667969 111.800781 " style=" stroke:none;fill-rule:nonzero;fill:rgb(0%,86.666667%,76.078431%);fill-opacity:1;" />
<path d="M 186.332031 391.300781 L 372.667969 391.300781 C 382.957031 391.300781 391.300781 382.957031 391.300781 372.667969 C 391.300781 362.375 382.957031 354.03125 372.667969 354.03125 L 186.332031 354.03125 C 176.042969 354.03125 167.699219 362.375 167.699219 372.667969 C 167.699219 382.957031 176.042969 391.300781 186.332031 391.300781 Z M 186.332031 391.300781 " style=" stroke:none;fill-rule:nonzero;fill:rgb(0%,86.666667%,76.078431%);fill-opacity:1;" />
<path d="M 559 27.949219 C 559 12.515625 546.484375 0 531.050781 0 L 27.949219 0 C 12.515625 0 0 12.515625 0 27.949219 L 0 232.917969 C 0.0234375 239.816406 2.613281 246.457031 7.265625 251.550781 C 2.613281 256.644531 0.0234375 263.285156 0 270.183594 L 0 475.148438 C 0 490.585938 12.515625 503.101562 27.949219 503.101562 L 57.324219 503.101562 L 65.347656 551.222656 C 66.097656 555.710938 69.984375 559 74.535156 559 L 111.800781 559 C 116.351562 559 120.234375 555.710938 120.984375 551.222656 L 129.007812 503.101562 L 429.992188 503.101562 L 438.015625 551.222656 C 438.765625 555.710938 442.648438 559 447.199219 559 L 484.464844 559 C 489.015625 559 492.902344 555.710938 493.652344 551.222656 L 501.675781 503.101562 L 531.050781 503.101562 C 546.484375 503.101562 559 490.585938 559 475.148438 L 559 270.183594 C 558.976562 263.285156 556.386719 256.644531 551.734375 251.550781 C 556.382812 246.457031 558.976562 239.816406 559 232.917969 Z M 18.632812 27.949219 C 18.632812 22.804688 22.804688 18.632812 27.949219 18.632812 L 531.050781 18.632812 C 536.195312 18.632812 540.367188 22.804688 540.367188 27.949219 L 540.367188 232.917969 C 540.367188 238.0625 536.195312 242.234375 531.050781 242.234375 L 27.949219 242.234375 C 22.804688 242.234375 18.632812 238.0625 18.632812 232.917969 Z M 103.910156 540.367188 L 82.425781 540.367188 L 76.210938 503.101562 L 110.125 503.101562 Z M 476.574219 540.367188 L 455.089844 540.367188 L 448.875 503.101562 L 482.789062 503.101562 Z M 540.367188 475.148438 C 540.367188 480.296875 536.195312 484.46875 531.050781 484.46875 L 27.949219 484.46875 C 22.804688 484.46875 18.632812 480.296875 18.632812 475.148438 L 18.632812 270.183594 C 18.632812 265.039062 22.804688 260.867188 27.949219 260.867188 L 531.050781 260.867188 C 536.195312 260.867188 540.367188 265.039062 540.367188 270.183594 Z M 540.367188 475.148438 " style=" stroke:none;fill-rule:nonzero;fill:rgb(13.72549%,12.156863%,12.54902%);fill-opacity:1;" />
<path d="M 186.332031 158.382812 L 372.667969 158.382812 C 388.105469 158.382812 400.617188 145.871094 400.617188 130.433594 C 400.617188 114.996094 388.105469 102.484375 372.667969 102.484375 L 186.332031 102.484375 C 170.898438 102.484375 158.382812 114.996094 158.382812 130.433594 C 158.382812 145.871094 170.894531 158.382812 186.332031 158.382812 Z M 186.332031 121.117188 L 372.667969 121.117188 C 377.8125 121.117188 381.984375 125.289062 381.984375 130.433594 C 381.984375 135.578125 377.8125 139.75 372.667969 139.75 L 186.332031 139.75 C 181.1875 139.75 177.015625 135.578125 177.015625 130.433594 C 177.015625 125.289062 181.1875 121.117188 186.332031 121.117188 Z M 186.332031 121.117188 " style=" stroke:none;fill-rule:nonzero;fill:rgb(13.72549%,12.156863%,12.54902%);fill-opacity:1;" />
<path d="M 372.667969 344.714844 L 186.332031 344.714844 C 170.898438 344.714844 158.382812 357.230469 158.382812 372.667969 C 158.382812 388.101562 170.898438 400.617188 186.332031 400.617188 L 372.667969 400.617188 C 388.105469 400.617188 400.617188 388.101562 400.617188 372.667969 C 400.617188 357.230469 388.101562 344.714844 372.667969 344.714844 Z M 372.667969 381.984375 L 186.332031 381.984375 C 181.1875 381.984375 177.015625 377.8125 177.015625 372.667969 C 177.015625 367.519531 181.1875 363.347656 186.332031 363.347656 L 372.667969 363.347656 C 377.8125 363.347656 381.984375 367.519531 381.984375 372.667969 C 381.984375 377.8125 377.8125 381.984375 372.667969 381.984375 Z M 372.667969 381.984375 " style=" stroke:none;fill-rule:nonzero;fill:rgb(13.72549%,12.156863%,12.54902%);fill-opacity:1;" />
</g>
</svg>